<svg width="310" height="101" viewBox="0 0 310 101" fill="none" xmlns="http://www.w3.org/2000/svg">
<path d="M154.027 80.6542C168.027 80.6542 181.442 85.1636 194.423 89.528C204.553 92.9382 215.033 96.4612 225.719 97.8182C244.759 100.23 264.882 99.6501 284.341 99.0904C292.567 98.8529 301.066 98.6072 309.272 98.5992C300.144 87.374 290.453 78.4839 280.202 69.0787C275.967 65.1933 271.59 61.1792 267.234 56.9677C256.355 46.4471 248.825 33.2531 241.542 20.4939C237.886 14.0841 234.101 7.46086 229.938 1.24029C229.874 1.24029 229.805 1.24029 229.737 1.24029C222.119 1.24029 214.26 1.04703 206.654 0.8578C190.735 0.463226 174.271 0.0525481 158.5 1.36108C145.838 2.41194 134.496 7.79907 123.524 13.005C114.916 17.0957 106.014 21.3192 96.4114 23.5297C89.1118 29.3073 80.9385 32.5606 73.039 35.7091C64.1571 39.2441 54.9732 42.9 47.118 50.1634C39.1863 57.4871 30.3768 63.0876 21.8532 68.499C14.8355 72.96 7.58413 77.5661 0.824046 83.1344C12.7055 84.2616 24.7601 87.5231 36.4242 90.6837C52.5896 95.0602 69.3107 99.5856 85.8305 98.5066C97.1644 97.7697 107.802 93.6348 118.089 89.6407C129.362 85.2602 141.022 80.7306 153.629 80.6542C153.761 80.6542 153.894 80.6542 154.027 80.6542ZM258.549 100.053C247.453 100.053 236.388 99.6421 225.658 98.2812C214.928 96.9203 204.424 93.3893 194.27 89.975C181.329 85.6225 167.95 81.1213 154.027 81.1213C153.894 81.1213 153.762 81.1213 153.633 81.1213C141.111 81.2017 129.491 85.7112 118.258 90.0756C107.939 94.0857 97.265 98.2329 85.8626 98.9737C69.2503 100.057 52.5051 95.5232 36.3034 91.1346C24.4702 87.9337 12.2385 84.62 0.216097 83.549C0.119467 83.541 0.0389572 83.4765 0.0107734 83.384C-0.0174104 83.2955 0.0107263 83.1948 0.0831989 83.1344C6.99226 77.3849 14.4207 72.6662 21.5995 68.1044C30.107 62.7012 38.9004 57.1167 46.7959 49.8171C54.7196 42.4974 63.9437 38.8254 72.8659 35.2702C80.7493 32.1338 88.9025 28.8846 96.1618 23.127C96.186 23.1069 96.2182 23.0908 96.2544 23.0827C105.829 20.8884 114.723 16.6649 123.323 12.5823C134.331 7.35618 145.713 1.94891 158.464 0.894032C174.259 -0.418528 190.731 -0.00784383 206.667 0.38673C214.268 0.575964 222.127 0.773244 229.737 0.773244C229.926 0.773244 230.152 0.716877 230.26 0.873901C234.46 7.13876 238.269 13.8103 241.953 20.2603C249.216 32.9914 256.729 46.1572 267.56 56.6295C271.912 60.837 276.289 64.8511 280.52 68.7324C290.9 78.2586 300.704 87.2532 309.948 98.6877C310.004 98.7602 310.017 98.8568 309.976 98.9375C309.936 99.0179 309.855 99.0702 309.767 99.0702C309.707 99.0702 309.646 99.0702 309.586 99.0702C301.288 99.0702 292.679 99.3198 284.353 99.5575C275.83 99.8031 267.181 100.053 258.549 100.053Z" fill="#AA0002"/>
<path d="M246.365 89.9531C237.391 89.9531 228.585 89.3251 220.215 87.4971C211.063 85.5041 202.326 81.6953 193.879 78.0113C181.688 72.6967 169.081 67.2008 155.203 67.2008C155.154 67.2008 155.106 67.2008 155.058 67.2008C142.319 67.237 130.856 72.1571 119.768 76.9201C111.916 80.2901 103.799 83.7769 95.2276 85.5565C76.0183 89.5385 55.4844 84.6103 35.6269 79.8433C27.208 77.818 19.5058 75.9781 11.6948 74.7258L12.3068 74.3031C20.1379 75.5553 27.3086 77.3591 35.7396 79.3842C55.5448 84.1434 76.0224 89.0593 95.131 85.0975C103.659 83.326 111.755 79.8513 119.582 76.4894C130.711 71.7102 142.222 66.7659 155.058 66.7337C155.106 66.7337 155.154 66.7337 155.203 66.7337C169.182 66.7337 181.828 72.2456 194.064 77.5804C202.495 81.2525 211.212 85.0532 220.315 87.0421C237.987 90.8993 257.671 89.3855 276.703 87.9239C284.8 87.2999 291.62 86.7241 299.093 86.5308L299.315 86.9899C291.854 87.183 284.832 87.7709 276.739 88.3909C266.666 89.1641 256.411 89.9531 246.365 89.9531Z" fill="#AA0002"/>
<path d="M241.449 82.2539C232.386 82.2539 223.565 81.203 215.303 78.2036C207.83 75.4939 200.808 71.2904 194.016 67.2239C182.835 60.5322 171.276 53.6112 157.578 53.3777C144.042 53.1562 131.851 59.0507 120.042 64.7598C111.804 68.7419 103.284 72.8606 94.3541 74.898C77.1257 78.8275 57.9648 75.369 39.4319 72.0233C33.465 70.9482 26.109 69.8048 20.6172 69.0478L21.1849 68.6331C26.6847 69.3941 33.5455 70.4852 39.5165 71.5603C58.001 74.898 77.1177 78.3525 94.2494 74.4391C103.127 72.4138 111.623 68.307 119.836 64.3371C131.694 58.6037 143.958 52.6771 157.586 52.9066C171.409 53.1441 183.024 60.0974 194.258 66.8213C201.03 70.8757 208.031 75.067 215.464 77.7646C233.53 84.3154 254.358 81.505 274.501 78.7873C280.234 78.0103 283.858 77.4627 289.161 76.9555L289.378 77.3984C284.088 77.9055 280.295 78.4773 274.565 79.2503C263.55 80.736 252.324 82.2539 241.449 82.2539Z" fill="#AA0002"/>
<path d="M238.147 75.9688C228.678 75.9688 219.453 74.3463 211.187 69.6074C205.696 66.4548 200.445 62.3399 195.368 58.362C184.799 50.072 173.864 41.5041 159.965 40.9565C146.304 40.4251 133.481 47.1771 121.1 53.7157C115.35 56.7515 109.404 59.892 103.586 62.1426C84.8032 69.41 64.225 67.2319 44.3232 65.122C40.1963 64.6872 32.8886 64.2001 28.7617 63.8497L29.3938 63.3908C33.5248 63.741 40.2406 64.2202 44.3715 64.655C64.2169 66.7607 84.7388 68.9349 103.417 61.7078C109.206 59.4652 114.879 56.4697 120.883 53.301C133.316 46.7302 146.179 39.958 159.986 40.4854C174.037 41.0411 185.029 49.6573 195.658 57.9916C200.723 61.9614 205.957 66.0642 211.421 69.2007C229.072 79.3227 251.212 75.079 270.748 71.3386C274.883 70.5454 277.105 70.0421 280.958 69.4181L281.373 69.8408C277.524 70.4609 274.967 71.0045 270.837 71.7976C260.328 73.8108 249.071 75.9688 238.147 75.9688Z" fill="#AA0002"/>
<path d="M236.984 69.4883C226.222 69.4883 215.806 66.8874 205.756 58.9396C202.358 56.2501 199.036 53.1136 195.517 49.7919C185.508 40.3423 175.157 30.5706 161.765 29.9425C148.245 29.2983 135.216 36.6462 122.602 43.7405C116.293 47.2876 110.338 50.6415 104.423 52.9727C86.6755 59.9783 67.7642 59.1168 49.4769 58.2793C46.2599 58.1303 40.8164 57.9532 37.5391 57.8485L37.9578 57.4096C41.2352 57.5183 46.2801 57.6633 49.4971 57.8082C67.736 58.6417 86.595 59.5033 104.25 52.5379C110.133 50.2147 116.079 46.8729 122.372 43.3338C135.043 36.2033 148.161 28.8433 161.785 29.4714C175.354 30.1076 185.766 39.9437 195.839 49.4497C199.35 52.7633 202.664 55.8958 206.046 58.5692C225.163 73.6918 245.693 69.2629 267.426 64.5764C269.911 64.0409 271.634 63.6865 274.19 63.1631L274.545 63.5698C271.992 64.0931 270.007 64.4998 267.523 65.0353C257.063 67.29 246.876 69.4883 236.984 69.4883Z" fill="#AA0002"/>
<path d="M236.005 63.0176C225.694 63.0176 215.866 60.2273 205.498 51.72C201.818 48.6963 198.267 45.1169 194.832 41.6543C185.604 32.3456 176.058 22.7188 162.373 21.982C148.257 21.2009 134.946 28.8951 122.054 36.3236C116.071 39.766 110.418 43.0233 104.745 45.443C89.3968 51.9857 72.6959 51.6354 56.5426 51.2932C53.1202 51.2207 49.1624 51.1281 45.6958 51.1201L46.1145 50.6691C49.5812 50.6772 53.1242 50.7537 56.5546 50.8261C72.6516 51.1644 89.3042 51.5146 104.56 45.0082C110.209 42.6005 115.845 39.3553 121.816 35.9129C134.769 28.4563 148.168 20.7419 162.401 21.511C176.267 22.2598 185.874 31.951 195.167 41.3242C198.589 44.7787 202.132 48.35 205.796 51.3576C224.8 66.9553 242.044 63.1384 263.883 58.311C265.308 57.9929 266.613 57.7231 268.086 57.401L268.332 57.8117C266.858 58.1298 265.409 58.4519 263.983 58.77C253.894 61.0005 244.774 63.0176 236.005 63.0176Z" fill="#AA0002"/>
<path d="M235.986 55.5234C223.987 55.5234 213.926 51.9119 201.251 41.0249C198.944 39.044 196.681 36.9181 194.282 34.6714C184.88 25.8539 175.161 16.7345 162.313 15.897C149.143 15.0555 135.373 23.0033 123.234 30.0332C118.777 32.614 114.566 35.0539 110.56 36.9785C91.9825 45.9128 74.6132 45.5142 54.494 45.0632L53.3545 45.0511L53.733 44.6083L54.5061 44.5921C74.5609 45.0471 91.8818 45.4417 110.358 36.5557C114.348 34.6352 118.552 32.2033 123.001 29.6265C135.2 22.5645 149.014 14.5603 162.341 15.4259C175.358 16.2755 185.142 25.4553 194.604 34.3292C196.995 36.5718 199.258 38.6937 201.561 40.6706C222.139 58.3458 235.929 56.6387 262.47 51.5616L262.796 51.928C252.413 53.917 243.627 55.5234 235.986 55.5234Z" fill="#AA0002"/>
<path d="M237.475 47.8496C234.299 47.8496 231.154 47.6563 228.074 47.1974C218.81 45.8083 210.395 42.08 201.593 35.4648C199.367 33.7899 197.112 31.9821 194.934 30.2347C185.029 22.299 174.79 14.0935 161.761 13.5016C148.571 12.8896 136.199 19.8309 124.233 26.5265C119.603 29.1195 115.226 31.5674 110.841 33.5765C92.6065 41.9189 78.9575 42.1202 60.0059 41.1217L60.7829 40.7191C79.6701 41.7176 92.5058 41.4479 110.644 33.1497C115.013 31.1487 119.381 28.7047 124.003 26.1159C136.026 19.388 148.451 12.4306 161.786 13.0305C174.964 13.6304 185.263 21.8843 195.228 29.8683C197.402 31.6157 199.653 33.4195 201.875 35.0864C219.639 48.4455 234.101 49.0575 257.53 45.5104L257.909 45.9492C251.406 46.9356 244.131 47.8496 237.475 47.8496Z" fill="#AA0002"/>
<path d="M238.707 40.7129C223.299 40.7129 212.218 36.9403 197.623 27.6839C196.395 26.9068 195.155 26.1016 193.903 25.2923C184.224 19.0315 173.256 11.9372 161.298 11.6312C148.801 11.3131 137.076 17.8156 125.73 24.1046C122.485 25.9043 119.421 27.6034 116.361 29.1334C97.6311 38.4864 84.0587 39.8795 65.8398 38.4622L66.5967 38.0717C91.6682 40.0204 102.672 35.4425 116.152 28.7106C119.2 27.1887 122.264 25.4936 125.505 23.6939C136.629 17.5257 148.124 11.1481 160.405 11.1481C160.707 11.1481 161.008 11.1561 161.31 11.1602C173.401 11.4742 184.425 18.6047 194.157 24.8977C195.409 25.707 196.649 26.5082 197.877 27.2893C216.51 39.1104 229.564 41.9167 253.19 39.352L253.544 39.811C248.286 40.3787 243.088 40.7129 238.707 40.7129Z" fill="#AA0002"/>
<path d="M80.6283 36.7612C76.8154 36.7612 74.762 36.7894 70.7881 36.4351L71.537 36.0646C88.0286 37.5423 99.1571 36.3867 116.14 27.8108C118.994 26.3694 121.885 24.7951 124.68 23.2732C135.865 17.1775 147.432 10.8764 160.666 10.824C160.719 10.824 160.771 10.824 160.823 10.824C172.914 10.824 183.692 16.1669 194.116 21.3326C195.598 22.0694 197.08 22.8021 198.565 23.5228C216.112 32.0223 229.439 34.5669 249.308 33.2342L249.586 33.7093C229.624 35.05 215.991 32.4853 198.36 23.9456C196.874 23.2249 195.393 22.4881 193.907 21.7553C183.531 16.6098 172.801 11.2951 160.823 11.2951C160.771 11.2951 160.719 11.2951 160.67 11.2951C147.553 11.3434 136.038 17.6204 124.901 23.6879C122.107 25.2099 119.216 26.7841 116.353 28.2295C103.522 34.7118 92.2843 36.7612 80.6283 36.7612Z" fill="#AA0002"/>
<path d="M83.221 35.2305C80.3624 35.2305 77.6648 35.1338 74.5122 34.8641L75.3779 34.5339C93.1014 36.0438 104.206 33.2898 120.923 24.5045C122.368 23.7476 123.806 22.9745 125.243 22.2095C136.509 16.1782 147.15 10.4851 160.11 10.0301C171.976 9.62346 183.233 13.9195 194.132 18.0867C195.904 18.7631 197.667 19.4395 199.423 20.0877C214.735 25.7567 228.118 27.8544 245.813 27.2947L246.067 27.7457C228.307 28.3053 214.634 26.2197 199.258 20.5266C197.502 19.8783 195.739 19.2019 193.967 18.5255C183.108 14.3744 171.907 10.0744 160.127 10.4972C147.275 10.9481 136.682 16.6211 125.465 22.6243C124.027 23.3892 122.59 24.1623 121.14 24.9232C107.306 32.1906 96.5399 35.2305 83.221 35.2305Z" fill="#AA0002"/>
<path d="M82.7258 33.7383C81.526 33.7383 79.0298 33.6054 77.8018 33.5289L78.5023 33.1424C95.2314 34.2013 109.468 27.6908 122.642 21.3817C134.02 15.9301 145.785 10.2934 159.591 9.45188C174.17 8.56611 188.488 13.1077 202.535 16.4978C215.552 19.6343 228.919 21.8528 242.576 21.6957L242.866 22.1467C229.161 22.2997 215.468 20.0973 202.426 16.9528C188.407 13.5707 174.118 9.0251 159.619 9.91893C145.906 10.7564 134.181 16.373 122.847 21.8044C110.584 27.6788 97.933 33.7383 82.7258 33.7383Z" fill="#AA0002"/>
<path d="M84.1436 32.3418C83.9302 32.3418 81.1118 32.2049 80.8984 32.2009L81.5426 31.7983C81.752 31.8023 83.9302 31.8748 84.1436 31.8748C98.9441 31.8748 111.429 25.9562 123.512 20.2308C134.58 14.9846 146.023 9.5572 159.249 8.65129C173.772 7.65681 188.48 10.0927 202.713 12.444C214.925 14.4652 227.1 16.587 239.589 16.5186L239.851 16.9695C227.325 17.046 214.868 14.9323 202.636 12.907C188.432 10.5597 173.74 8.12788 159.282 9.12236C146.144 10.0202 134.742 15.4275 123.714 20.6536C111.587 26.4031 99.0528 32.3418 84.1436 32.3418Z" fill="#AA0002"/>
<path d="M84.0269 30.8574L84.82 30.3541C98.3804 29.6012 112.698 24.0651 124.028 18.7464C134.85 13.6653 146.039 8.41103 158.827 7.29575C173.482 6.01138 188.544 7.68631 203.111 9.30486C214.381 10.557 225.51 11.9058 236.868 11.8213L237.089 12.24C225.687 12.3205 214.345 11.0281 203.059 9.7719C188.516 8.15737 173.482 6.48648 158.867 7.7628C146.164 8.87405 135.011 14.1082 124.229 19.1732C112.859 24.512 97.6759 30.1005 84.0269 30.8574Z" fill="#AA0002"/>
<path d="M87.6138 29.0547L88.3103 28.5232C100.454 27.106 113.748 21.9121 124.148 17.0242C134.882 11.9753 145.987 6.75324 158.589 5.57354C173.264 4.19656 188.423 5.24339 203.087 6.24996C213.551 6.97066 223.967 7.73564 234.48 7.58667L234.488 8.05775C223.947 8.2027 213.527 7.44173 203.055 6.71701C188.411 5.71044 173.272 4.66764 158.633 6.04059C146.111 7.21223 135.047 12.4142 124.345 17.447C113.913 22.355 99.8335 27.6294 87.6138 29.0547Z" fill="#AA0002"/>
<path d="M91.5757 26.7266L92.1957 26.1669C102.902 24.2263 114.235 19.4431 123.685 15.0142C134.6 9.89277 145.886 4.60227 158.544 3.47089C173.627 2.11807 189.317 2.73006 204.488 3.31387C213.7 3.6722 222.86 4.05067 232.068 3.9782L232.354 4.44122C223.138 4.51772 213.688 4.13925 204.472 3.78494C189.313 3.20113 173.639 2.58914 158.585 3.93794C146.011 5.06126 134.761 10.3357 123.882 15.4369C114.409 19.8819 102.342 24.7779 91.5757 26.7266Z" fill="#AA0002"/>
<path d="M290.755 99.1211C284.248 90.4406 276.453 83.2576 269.005 76.4573C263.352 71.2996 257.51 65.9649 252.195 59.9255C242.971 49.4412 237.121 36.0942 231.464 23.186C228.211 15.7616 224.752 7.91034 220.811 0.956994L221.31 0.900631C225.264 7.87411 228.634 15.5602 231.895 22.9967C237.536 35.8727 243.374 49.1876 252.545 59.6156C257.844 65.6347 263.678 70.9615 269.319 76.111C276.784 82.9275 284.768 90.3278 291.302 99.0447L290.755 99.1211Z" fill="#AA0002"/>
<path d="M272.081 99.6016C267.169 92.7165 260.67 86.2987 254.724 80.7022C248.636 74.9769 242.347 69.0583 237.467 62.0203C230.228 51.5803 225.952 38.8815 221.813 26.5974C218.914 17.9973 215.802 8.82549 211.824 0.845448L212.242 0.636084C216.237 8.64431 219.357 17.8322 222.26 26.4484C226.387 38.7003 230.651 51.3669 237.849 61.7506C242.705 68.7523 248.978 74.6507 255.046 80.36C261.009 85.9725 267.656 92.5998 272.596 99.525L272.081 99.6016Z" fill="#AA0002"/>
<path d="M253.359 99.8906C249.67 93.0661 243.828 86.6321 238.711 81.3135C233.05 75.427 227.196 69.3394 223.552 61.4721C219.083 51.8091 216.108 41.3529 213.233 31.2389C210.374 21.1854 207.169 10.3064 202.732 0.619245L203.163 0.421953C207.612 10.1413 210.821 21.0404 213.684 31.1101C216.555 41.208 219.522 51.6481 223.979 61.2747C227.591 69.0737 233.417 75.1291 239.049 80.9873C244.187 86.3302 250.23 92.8769 253.942 99.7577L253.359 99.8906Z" fill="#AA0002"/>
<path d="M233.888 98.9504C231.456 94.5578 228.791 90.2577 226.214 86.0986C220.295 76.5483 214.171 66.6719 210.809 55.342C209.175 49.8422 207.693 44.3463 206.26 39.0277C202.745 26.0027 199.153 13.022 193.75 0.407779L194.181 0.222567C199.596 12.869 203.196 25.8658 206.711 38.9069C208.144 44.2215 209.626 49.7174 211.256 55.2092C214.606 66.4786 220.71 76.3269 226.612 85.8531C229.193 90.0121 232.052 94.5738 234.488 98.9785L233.888 98.9504Z" fill="#AA0002"/>
<path d="M214.078 95.8216C208.578 80.8803 204.5 65.677 200.453 50.7316C196.004 34.3206 191.008 16.5688 184.67 0.28257L185.109 0.113469C191.455 16.4198 196.455 34.1877 200.904 50.6108C204.951 65.5441 209.134 80.9848 214.626 95.9102L214.078 95.8216Z" fill="#AA0002"/>
<path d="M193.548 89.5339C191.91 79.8749 191.108 70.2561 190.291 60.7139C189.53 51.8521 188.745 42.6884 187.324 33.738C186.176 26.4988 183.664 20.4876 181.002 14.1261C179.267 9.97503 177.218 4.9422 175.857 0.299926L176.308 0.167067C177.665 4.78116 179.706 9.80593 181.437 13.9449C183.99 20.0528 186.631 26.37 187.791 33.6655C189.212 42.632 189.997 51.8038 190.758 60.6736C191.575 70.2078 192.421 80.0681 194.06 89.707L193.548 89.5339Z" fill="#AA0002"/>
<path d="M173.486 83.5098L172.986 83.3407C172.99 75.9163 173.832 68.1173 174.617 60.4111C175.861 48.1996 177.15 35.5692 175.414 24.1024C174.826 20.2372 173.039 16.7343 171.312 13.3442C169.335 9.46292 167.245 4.9817 167.1 0.520601L167.571 0.5045C167.708 4.86494 169.685 9.12069 171.73 13.1308C173.474 16.5532 175.281 20.0922 175.877 24.0299C177.621 35.5571 176.332 48.2157 175.084 60.4594C174.299 68.1537 173.49 76.1055 173.486 83.5098Z" fill="#AA0002"/>
<path d="M153.834 80.9277H153.323C154.104 73.7971 155.787 66.1191 157.546 58.272C160.417 45.4765 163.384 32.2503 162.249 20.3245C161.995 17.6752 161.102 14.8971 160.236 12.2116C159.036 8.48728 157.78 4.71871 158.17 1.05078L158.654 1.01857C158.275 4.58986 159.499 8.39065 160.683 12.0666C161.556 14.7763 162.458 17.5826 162.716 20.2802C163.86 32.2784 160.884 45.545 158.005 58.3726C156.25 66.2118 154.615 73.8214 153.834 80.9277Z" fill="#AA0002"/>
<path d="M135.647 83.5602L135.051 83.834C136.662 74.8515 138.747 65.4863 140.636 56.7776C144.497 38.9856 148.362 21.1935 149.477 2.45531L149.948 2.4835C148.829 21.2579 144.96 39.0661 141.095 56.8783C139.206 65.5831 137.254 74.5818 135.647 83.5602Z" fill="#AA0002"/>
<path d="M118.383 89.7958L117.867 89.8965C122.324 69.2699 127.804 48.7401 133.002 29.8489C133.803 26.9339 135.208 23.7612 136.698 20.4033C139.154 14.8672 141.55 9.81424 141.493 4.84584L141.964 4.84181C142.021 9.91087 139.605 15.0121 137.129 20.5925C135.647 23.9343 134.246 27.0909 133.453 29.9737C128.259 48.8609 122.84 69.1814 118.383 89.7958Z" fill="#AA0002"/>
<path d="M101.215 95.795L100.671 95.9238C101.549 92.6989 102.415 89.4457 103.284 86.1803C107.605 69.9867 112.07 53.2375 118.125 37.7123C119.667 33.7625 122.385 29.8369 125.264 25.6858C129.371 19.7511 133.574 13.9171 134.049 7.75689L134.56 7.49519C134.077 13.7802 129.793 19.9685 125.646 25.9516C122.788 30.0825 120.086 33.9839 118.564 37.8814C112.517 53.3865 108.056 70.1196 103.739 86.3011C102.87 89.5704 102.093 92.57 101.215 95.795Z" fill="#AA0002"/>
<path d="M82.9674 98.923L82.3877 98.9473C84.8236 92.7508 87.2554 86.0349 89.4739 79.7258C93.5807 68.0215 97.8324 55.9186 103.32 44.9592C106.44 38.7265 110.656 33.7017 114.731 28.838C119.135 23.5838 123.685 18.1523 126.797 11.2312L127.365 10.9896C124.225 17.9671 119.514 23.8616 115.089 29.14C111.03 33.9796 106.835 38.9882 103.739 45.1726C98.2672 56.0998 94.0196 68.1906 89.9168 79.8788C87.6983 86.192 85.4073 92.7226 82.9674 98.923Z" fill="#AA0002"/>
<path d="M62.4055 97.1582L62.0068 96.9127C66.4639 89.754 71.0015 81.4317 74.8386 73.9589C79.1064 65.6488 83.5232 57.0568 88.6164 49.2418C92.8077 42.8078 98.1747 38.0689 103.361 33.487C109.227 28.3052 115.532 22.1652 119.78 14.3865L120.367 14.318C116.079 22.1652 109.565 28.6314 103.671 33.8373C98.5049 38.3991 93.166 43.1179 89.0069 49.4995C83.9298 57.2943 79.521 65.8742 75.2572 74.1765C71.4122 81.6532 66.8746 89.9875 62.4055 97.1582Z" fill="#AA0002"/>
<path d="M40.9179 92.2324L40.5757 91.9063C47.8914 84.2765 54.9051 75.0847 60.9405 67.1006C65.2808 61.359 69.7701 55.4204 74.6217 49.7675C79.8881 43.6275 86.1489 39.6898 92.2003 35.885C99.2584 31.448 107.13 25.618 112.706 17.5293L113.225 17.5655C107.593 25.7348 99.5482 31.8184 92.4499 36.2836C86.4267 40.0682 80.198 43.9858 74.976 50.0735C70.1364 55.7143 65.6512 61.6489 61.3149 67.3824C55.2715 75.3785 48.2497 84.5825 40.9179 92.2324Z" fill="#AA0002"/>
<path d="M19.6548 86.6504L19.1758 86.4772C34.9507 74.0925 48.0199 63.4108 60.6905 49.7579C67.0399 42.9132 74.8186 39.3379 82.3397 35.8793C90.0178 32.3523 98.3884 27.8832 104.838 20.7487L105.664 20.5393C99.1493 27.7423 90.2553 32.759 82.537 36.3061C75.0562 39.7446 67.3218 43.3038 61.0368 50.0759C48.342 63.7531 35.4458 74.2575 19.6548 86.6504Z" fill="#AA0002"/>
<path d="M12.437 67.3559V15.2284H33.3095C38.4649 15.2284 42.5225 16.7321 45.4821 19.7395C48.4655 22.7468 49.9573 26.7089 49.9573 31.6257C49.9573 36.6857 48.3939 40.8029 45.2673 43.9773C42.1406 47.1278 38.1069 48.7031 33.1663 48.7031H24.8602V67.3559H12.437ZM24.8602 40.4687H30.6601C33.1663 40.4687 34.9205 39.7169 35.923 38.2132C36.9254 36.6857 37.4267 34.7166 37.4267 32.3059C37.4267 29.8714 36.9254 27.9023 35.923 26.3986C34.9205 24.8711 33.1663 24.1073 30.6601 24.1073H24.8602V40.4687ZM38.5723 67.3559L28.691 44.5143L39.897 41.6144L52.1412 67.3559H38.5723Z" fill="#BA292B"/>
<path d="M51.8204 51.066V49.9204C51.8204 44.7172 53.4912 40.5761 56.8327 37.4972C60.198 34.3943 64.6733 32.8429 70.2583 32.8429C75.7479 32.8429 79.9845 34.3347 82.968 37.3182C85.9515 40.2778 87.4432 44.3353 87.4432 49.4908V52.8203H58.3721V46.7698H75.8076V46.4476C75.8076 44.9201 75.3422 43.6551 74.4113 42.6526C73.4805 41.6263 72.0604 41.1131 70.1509 41.1131C68.0744 41.1131 66.4992 41.8531 65.4251 43.3329C64.351 44.8127 63.814 46.6028 63.814 48.7031V51.2093C63.814 53.9779 64.3988 56.1141 65.5683 57.6178C66.7378 59.1215 68.4205 59.8733 70.6164 59.8733C72.2394 59.8733 73.5879 59.5391 74.662 58.8708C75.736 58.2025 76.5833 57.3075 77.2039 56.1857L87.1568 59.0856C86.0589 61.9498 84.1852 64.1934 81.5359 65.8164C78.8866 67.4394 75.2825 68.2509 70.7238 68.2509C64.7329 68.2509 60.0787 66.7114 56.7611 63.6325C53.4673 60.5535 51.8204 56.3647 51.8204 51.066Z" fill="#BA292B"/>
<path d="M88.8767 51.1376V49.992C88.8767 45.0991 90.1894 41.0654 92.8149 37.891C95.4642 34.7166 98.9131 33.1293 103.162 33.1293C105.692 33.1293 107.84 33.547 109.606 34.3824C111.372 35.1939 112.745 36.268 113.723 37.6046V14.7988H125.502V67.3559H113.938L113.902 62.6658H113.831C112.876 64.1456 111.492 65.4226 109.678 66.4966C107.864 67.5468 105.704 68.0719 103.197 68.0719C98.7819 68.0719 95.2852 66.4847 92.7075 63.3103C90.1536 60.112 88.8767 56.0544 88.8767 51.1376ZM101.049 51.1018C101.049 53.6557 101.574 55.7561 102.625 57.403C103.675 59.026 105.298 59.8375 107.494 59.8375C108.973 59.8375 110.227 59.4079 111.253 58.5486C112.279 57.6894 113.031 56.7108 113.508 55.6129V45.3736C113.055 44.2756 112.303 43.3329 111.253 42.5452C110.227 41.7576 108.973 41.3638 107.494 41.3638C105.298 41.3638 103.675 42.1872 102.625 43.8341C101.574 45.4571 101.049 47.5455 101.049 50.0994V51.1018Z" fill="#BA292B"/>
<path d="M131.59 67.3559V15.2284H141.185L154.789 53.4648C155.052 54.2524 155.302 55.052 155.541 55.8635C155.78 56.6511 155.983 57.4746 156.15 58.3338H156.329C156.496 57.4746 156.699 56.6511 156.937 55.8635C157.176 55.052 157.427 54.2524 157.689 53.4648L171.222 15.2284H180.925V67.3559H173.979V29.8714C173.979 29.0599 173.979 28.1648 173.979 27.1862C174.003 26.1838 174.051 25.2888 174.122 24.5011H173.907C173.764 25.3365 173.549 26.2315 173.263 27.1862C172.977 28.141 172.702 29.036 172.44 29.8714L159.3 67.3559H152.82L139.609 29.8714C139.347 29.0599 139.06 28.0694 138.75 26.8998C138.44 25.7303 138.261 24.9307 138.213 24.5011H137.998C138.022 24.9069 138.058 25.7064 138.106 26.8998C138.153 28.0694 138.177 29.0599 138.177 29.8714V67.3559H131.59Z" fill="white"/>
<path d="M185.831 51.1376V49.992C185.831 44.8843 187.263 40.779 190.127 37.6762C192.991 34.5734 196.786 33.0219 201.512 33.0219C206.214 33.0219 209.818 34.4779 212.324 37.3898C214.854 40.2778 216.119 44.3234 216.119 49.5266V51.7821H189.626V47.3069H209.388V47.0204C209.388 44.7053 208.768 42.6765 207.527 40.9341C206.309 39.1679 204.305 38.2848 201.512 38.2848C198.6 38.2848 196.392 39.335 194.889 41.4354C193.409 43.5357 192.669 46.2447 192.669 49.5624V51.1735C192.669 54.7059 193.457 57.5462 195.032 59.6943C196.631 61.8185 198.946 62.8806 201.977 62.8806C204.054 62.8806 205.808 62.463 207.24 61.6276C208.696 60.7683 209.83 59.6704 210.641 58.3338L215.869 61.0547C214.866 63.0119 213.231 64.6946 210.964 66.1028C208.696 67.4871 205.725 68.1793 202.049 68.1793C196.894 68.1793 192.896 66.6398 190.055 63.5609C187.239 60.458 185.831 56.317 185.831 51.1376Z" fill="white"/>
<path d="M219.2 56.8659L225.572 56.9017V57.6178C225.572 59.6943 226.229 61.186 227.541 62.093C228.878 62.9761 230.692 63.4177 232.983 63.4177C235.251 63.4177 236.993 63.0119 238.21 62.2004C239.451 61.3889 240.072 60.1597 240.072 58.5128C240.072 56.9853 239.451 55.8396 238.21 55.0758C236.993 54.3121 234.714 53.5244 231.372 52.7129C227.529 51.8059 224.677 50.5768 222.816 49.0253C220.978 47.4739 220.059 45.302 220.059 42.5094C220.059 39.5498 221.216 37.2227 223.532 35.5281C225.871 33.8334 229.045 32.9861 233.055 32.9861C237.017 32.9861 240.179 33.8693 242.542 35.6355C244.929 37.3778 246.122 39.884 246.122 43.1538V43.8341H239.714V43.1538C239.714 41.2206 239.129 39.8601 237.96 39.0724C236.79 38.2609 235.119 37.8552 232.947 37.8552C230.871 37.8552 229.308 38.2132 228.257 38.9292C227.231 39.6453 226.718 40.7193 226.718 42.1514C226.718 43.4403 227.303 44.4666 228.472 45.2304C229.666 45.9703 231.897 46.746 235.167 47.5575C239.01 48.4644 241.922 49.6817 243.903 51.2093C245.908 52.7368 246.91 54.9088 246.91 57.7252C246.91 60.9712 245.741 63.5251 243.402 65.3868C241.086 67.2485 237.649 68.1793 233.091 68.1793C228.58 68.1793 225.143 67.2604 222.78 65.4226C220.417 63.5609 219.223 60.9354 219.2 57.5462V56.8659Z" fill="white"/>
<path d="M251.995 67.3559V14.7988H258.869V38.3564C259.848 36.7095 261.268 35.4207 263.13 34.4898C264.991 33.559 267.14 33.0935 269.574 33.0935C272.844 33.0935 275.458 34.0363 277.415 35.9219C279.396 37.7836 280.386 40.8983 280.386 45.2662V67.3559H273.512V46.0896C273.512 43.3925 272.928 41.4831 271.758 40.3613C270.612 39.2157 268.989 38.6428 266.889 38.6428C265.075 38.6428 263.464 39.1679 262.056 40.2181C260.671 41.2444 259.609 42.5691 258.869 44.1921V67.3559H251.995Z" fill="white"/>
</svg>
